<svg xmlns="http://www.w3.org/2000/svg" xml:space="preserve" version="1.1" width="38100" height="19544"
    style="shape-rendering:geometricPrecision; text-rendering:geometricPrecision; image-rendering:optimizeQuality; fill-rule:evenodd; clip-rule:evenodd"
    xmlns:xlink="http://www.w3.org/1999/xlink" viewBox="7305 7681 23809 4907">
    <defs>
        <style type="text/css">
            .fil0 {
                fill: none
            }

            .fil1 {
                fill: white;
                fill-rule: nonzero
            }
        </style>
    </defs>
    <g id="Layer_x0020_1">
        <metadata id="CorelCorpID_0Corel-Layer"></metadata>
        <rect class="fil0" width="38100" height="19544"></rect>
        <path class="fil1"
            d="M25730 8023c-109,109 -194,236 -252,374 -20,49 -37,98 -51,149 -26,98 -40,199 -40,303 0,262 86,511 244,715 30,39 63,76 98,111l0 0c196,196 450,314 723,338 16,2 32,3 48,3 14,1 29,1 43,1 4,0 8,0 13,0 4,0 8,0 13,0 14,0 29,0 43,-1 16,-1 32,-2 48,-3 273,-24 527,-142 723,-338l0 0c35,-35 68,-72 98,-111 158,-204 244,-453 244,-715 0,-104 -13,-205 -39,-303 -14,-51 -31,-101 -51,-149 -58,-138 -143,-265 -252,-374 -221,-221 -514,-342 -827,-342 -312,0 -606,122 -827,342zm780 1850c-20,-1 -40,-2 -60,-4 -100,-10 -195,-35 -284,-72 -129,-53 -245,-133 -342,-231 -34,-35 -66,-72 -94,-112 -124,-169 -198,-378 -198,-604 0,-107 16,-210 47,-308 15,-49 34,-96 57,-142 167,-340 516,-575 920,-575 404,0 753,235 920,575 22,45 41,93 57,142 31,97 47,201 47,308 0,226 -73,434 -198,604 -29,39 -60,77 -94,112 -96,99 -212,178 -342,231 -89,37 -184,62 -284,72 -20,2 -40,4 -60,4 -15,1 -31,1 -46,1 -16,0 -31,0 -47,-1z">
        </path>
        <path class="fil1"
            d="M25730 8023c-109,109 -194,236 -252,374l0 0c-20,49 -37,98 -51,149l0 0c-26,98 -40,199 -40,303l0 0c0,262 86,511 244,715l0 0c30,39 63,76 98,111l0 0 0 0c196,196 450,314 723,338l0 0c16,2 32,3 48,3l0 0c14,1 29,1 43,1l0 0c4,0 8,0 13,0l0 0c4,0 8,0 13,0l0 0c14,0 29,0 43,-1l0 0c16,-1 32,-2 48,-3l0 0c273,-24 527,-142 723,-338l0 0 0 0c35,-35 68,-73 98,-111l0 0c158,-204 244,-453 244,-715l0 0c0,-104 -13,-205 -39,-303l0 0c-14,-51 -31,-101 -51,-149l0 0c-58,-138 -143,-265 -252,-374l0 0c-221,-221 -514,-342 -827,-342l0 0c-312,0 -606,122 -827,342zm780 1850c-20,-1 -40,-2 -60,-5l0 0c-100,-10 -195,-35 -284,-72l0 0c-129,-53 -245,-133 -342,-231l0 0c-34,-35 -66,-72 -94,-112l0 0c-124,-169 -197,-378 -197,-604l0 0c0,-107 16,-210 47,-308l0 0c15,-49 34,-96 57,-142l0 0c167,-340 517,-575 920,-575l0 0c404,0 753,235 920,575l0 0c22,45 41,93 57,142l0 0c31,97 47,201 47,308l0 0c0,226 -73,434 -198,604l0 0c-29,39 -60,77 -94,112l0 0c-96,99 -212,178 -342,231l0 0c-89,37 -184,62 -284,72l0 0c-20,2 -40,4 -60,5l0 0c-15,1 -31,1 -47,1l0 0c-16,0 -31,0 -47,-1l0 0z">
        </path>
        <path class="fil1"
            d="M26545 9111c-14,0 -29,0 -43,1 -16,1 -32,2 -48,3 -273,24 -527,141 -723,338l0 0c-35,35 -68,73 -98,111 -158,204 -244,453 -244,715 0,104 13,205 40,303 14,51 31,101 51,149 58,138 143,265 252,374 221,221 514,342 827,342 312,0 606,-122 827,-342 109,-109 194,-236 252,-374 20,-49 37,-98 51,-149 26,-98 39,-199 39,-303 0,-262 -86,-511 -244,-715 -30,-39 -63,-76 -98,-111l0 0c-196,-196 -450,-314 -723,-338 -16,-2 -32,-3 -48,-3 -14,-1 -29,-1 -43,-1 -4,0 -8,0 -13,0 -4,0 -8,0 -13,0zm-907 1618c-22,-45 -41,-93 -57,-142 -31,-97 -47,-201 -47,-308 0,-226 73,-434 197,-604 29,-40 60,-77 95,-112 96,-99 212,-178 342,-231 89,-37 184,-61 284,-72 20,-2 40,-4 60,-5 15,-1 31,-1 47,-1 16,0 31,0 47,1 20,1 40,2 60,5 100,10 195,35 284,72 129,54 246,133 342,231 34,35 66,72 95,112 124,169 197,378 197,604 0,107 -16,210 -47,308 -15,49 -34,96 -57,142 -167,340 -516,575 -920,575 -404,0 -753,-235 -920,-575z">
        </path>
        <path class="fil1"
            d="M26545 9111c-14,0 -29,0 -43,1l0 0c-16,1 -32,2 -48,3l0 0c-273,24 -527,141 -723,338l0 0 0 0c-35,35 -68,73 -98,111l0 0c-158,204 -244,453 -244,715l0 0c0,104 13,206 40,303l0 0c14,51 31,101 51,149l0 0c58,138 143,265 252,374l0 0c221,221 514,342 827,342l0 0c312,0 606,-122 827,-342l0 0c109,-109 194,-236 252,-374l0 0c20,-49 37,-98 51,-149l0 0c26,-98 39,-199 39,-303l0 0c0,-262 -86,-511 -244,-715l0 0c-30,-39 -63,-76 -98,-111l0 0 0 0c-196,-196 -450,-314 -723,-338l0 0c-16,-2 -32,-3 -48,-3l0 0c-14,-1 -29,-1 -43,-1l0 0c-4,0 -8,0 -13,0l0 0c-4,0 -8,0 -13,0zm-907 1618c-22,-45 -41,-93 -57,-142l0 0c-31,-97 -47,-201 -47,-308l0 0c0,-226 73,-434 197,-604l0 0c29,-40 60,-77 95,-112l0 0c96,-99 212,-178 342,-231l0 0c89,-37 184,-61 284,-72l0 0c20,-2 40,-4 60,-4l0 0c15,-1 31,-1 47,-1l0 0c16,0 31,0 47,1l0 0c20,1 40,2 60,4l0 0c100,10 195,35 284,72l0 0c129,53 246,133 342,231l0 0c34,35 66,72 95,112l0 0c124,169 197,378 197,604l0 0c0,107 -17,210 -47,308l0 0c-15,49 -34,96 -57,142l0 0c-167,340 -516,575 -920,575l0 0c-404,0 -753,-235 -920,-575l0 0z">
        </path>
        <path class="fil1"
            d="M25478 8397c-292,13 -564,133 -771,341 -221,221 -342,514 -342,827 0,312 122,606 342,827 208,208 480,328 771,341 18,1 37,1 55,1 35,0 69,-1 103,-5 273,-24 527,-142 723,-338 78,-78 144,-166 196,-260 21,-37 39,-75 55,-114 0,-1 1,-1 1,-2 8,-19 15,-37 22,-56 11,-30 20,-60 28,-91 1,-5 3,-10 4,-15 -21,8 -42,14 -65,17 -27,-85 -43,-176 -46,-269 -3,93 -19,184 -46,269 0,1 0,2 -1,2 -9,29 -20,58 -32,87 -7,16 -14,33 -22,49 -1,2 -2,4 -3,7 -160,327 -490,556 -874,574 -15,1 -31,1 -47,1 -36,0 -71,-2 -106,-6 -515,-53 -918,-490 -918,-1018 0,-529 403,-965 918,-1018 35,-4 70,-6 106,-6 16,0 31,0 47,1 384,17 713,247 874,574 1,2 2,4 3,7 8,16 15,32 22,49 12,28 22,57 32,87 0,1 1,1 1,2 27,85 43,176 46,269 3,-93 19,-184 46,-269 22,3 44,9 65,17 -1,-5 -3,-10 -4,-15 -8,-31 -18,-61 -28,-91 -7,-19 -14,-38 -22,-56 0,-1 0,-1 -1,-2 -16,-39 -35,-77 -55,-114 -52,-94 -118,-182 -196,-260 -196,-196 -450,-314 -724,-338 -34,-3 -69,-5 -103,-5 -19,0 -37,0 -55,1z">
        </path>
        <path class="fil1"
            d="M25478 8397c-292,13 -564,133 -771,341l0 0c-221,221 -342,514 -342,827l0 0c0,312 122,606 342,827l0 0c208,208 480,328 771,341l0 0c18,1 37,1 55,1l0 0c35,0 69,-1 103,-5l0 0c273,-24 527,-142 723,-338l0 0c78,-78 144,-166 197,-260l0 0c21,-37 39,-75 55,-114l0 0c0,-1 1,-1 1,-2l0 0c8,-19 15,-37 22,-56l0 0c11,-30 20,-60 28,-91l0 0c1,-5 3,-10 4,-15l0 0c-21,8 -42,14 -65,17l0 0c-27,-85 -43,-176 -46,-269l0 0c-3,93 -19,184 -46,269l0 0c0,1 0,2 -1,2l0 0c-9,29 -20,58 -32,87l0 0c-7,17 -14,33 -22,49l0 0c-1,2 -2,4 -3,7l0 0c-160,327 -490,556 -874,574l0 0c-15,1 -31,1 -47,1l0 0c-36,0 -71,-2 -106,-6l0 0c-515,-53 -918,-490 -918,-1018l0 0c0,-529 403,-965 918,-1018l0 0c35,-4 70,-6 106,-6l0 0c16,0 31,0 47,1l0 0c384,17 713,247 874,574l0 0c1,2 2,4 3,7l0 0c8,16 15,32 22,49l0 0c12,28 22,57 32,87l0 0c0,1 1,1 1,2l0 0c27,85 43,176 46,269l0 0c3,-93 19,-184 46,-269l0 0c22,3 44,9 65,17l0 0c-1,-5 -3,-10 -4,-15l0 0c-8,-31 -18,-61 -28,-91l0 0c-7,-19 -14,-38 -22,-56l0 0c0,-1 0,-1 -1,-2l0 0c-16,-39 -35,-77 -55,-114l0 0c-52,-94 -118,-182 -197,-260l0 0c-196,-196 -450,-314 -724,-338l0 0c-34,-3 -68,-5 -103,-5l0 0c-19,0 -37,1 -55,1l0 0z">
        </path>
        <path class="fil1"
            d="M27477 8400c-273,24 -527,141 -724,338 -78,78 -144,166 -197,260 -21,37 -39,75 -55,114 0,1 -1,1 -1,2 -8,19 -15,37 -22,56 -11,30 -20,60 -28,91 -1,5 -3,10 -4,15 21,-8 42,-14 65,-17 27,85 43,176 46,269 3,-93 19,-184 46,-269 0,-1 0,-2 1,-2 9,-29 20,-58 32,-87 7,-16 14,-33 22,-49 1,-2 2,-4 3,-7 160,-327 490,-556 874,-574 15,-1 31,-1 46,-1 36,0 72,2 107,6 515,53 918,490 918,1018 0,529 -403,965 -918,1018 -35,4 -71,6 -107,6 -16,0 -31,0 -46,-1 -384,-17 -713,-247 -874,-574 -1,-2 -2,-4 -3,-7 -8,-16 -15,-32 -22,-49 -12,-28 -22,-57 -32,-87 0,-1 -1,-1 -1,-2 -27,-85 -43,-176 -46,-269 -3,93 -19,184 -46,269 -22,-3 -44,-9 -65,-17 1,5 3,10 4,15 8,31 18,61 28,91 7,19 14,38 22,56 0,1 0,1 1,2 16,39 35,77 55,114 52,94 118,182 197,260 196,196 450,314 723,338 34,3 69,5 103,5 19,0 37,-1 56,-1 291,-13 564,-133 771,-341 221,-221 342,-514 342,-827 0,-312 -122,-606 -342,-827 -208,-208 -480,-328 -771,-341 -18,-1 -37,-1 -56,-1 -35,0 -69,1 -103,5z">
        </path>
        <path class="fil1"
            d="M27477 8400c-273,24 -527,141 -724,338l0 0c-78,78 -144,166 -197,260l0 0c-21,37 -39,75 -55,114l0 0c0,1 -1,1 -1,2l0 0c-8,19 -15,37 -22,56l0 0c-11,30 -20,60 -28,91l0 0c-1,5 -3,10 -4,15l0 0c21,-8 42,-14 65,-17l0 0c27,85 43,176 46,269l0 0c3,-93 19,-184 46,-269l0 0c0,-1 0,-2 1,-2l0 0c9,-29 20,-58 32,-87l0 0c7,-16 14,-33 22,-49l0 0c1,-2 2,-4 3,-7l0 0c160,-327 490,-556 874,-574l0 0c15,-1 31,-1 46,-1l0 0c36,0 72,2 107,6l0 0c515,53 918,490 918,1018l0 0c0,529 -403,965 -918,1018l0 0c-35,4 -71,6 -107,6l0 0c-16,0 -31,0 -46,-1l0 0c-384,-17 -713,-247 -874,-574l0 0c-1,-2 -2,-4 -3,-7l0 0c-8,-16 -15,-32 -22,-49l0 0c-12,-28 -22,-57 -32,-87l0 0c0,-1 -1,-1 -1,-2l0 0c-27,-85 -43,-176 -46,-269l0 0c-3,93 -19,184 -46,269l0 0c-22,-3 -44,-9 -65,-17l0 0c1,5 3,10 4,15l0 0c8,31 18,61 28,91l0 0c7,19 14,38 22,56l0 0c0,1 0,1 1,2l0 0c16,39 35,77 55,114l0 0c52,94 118,182 197,260l0 0c196,196 450,314 723,338l0 0c34,3 69,5 103,5l0 0c19,0 37,0 55,-1l0 0c291,-13 564,-133 771,-341l0 0c221,-221 342,-514 342,-827l0 0c0,-312 -122,-606 -342,-827l0 0c-208,-208 -480,-328 -771,-341l0 0c-18,-1 -37,-1 -55,-1l0 0c-35,0 -69,1 -103,5l0 0z">
        </path>
        <path class="fil1"
            d="M26545 9111c-15,0 -29,2 -44,3 -15,2 -29,4 -44,8 -123,28 -227,106 -290,211 -40,68 -64,147 -64,231 0,84 23,163 64,231 63,106 167,184 290,212 14,3 29,6 44,8 14,2 29,3 44,3 4,0 8,0 13,0 4,0 8,0 13,0 15,-1 29,-2 44,-3 15,-2 29,-4 44,-8 123,-28 228,-106 290,-212 40,-68 64,-147 64,-231 0,-85 -23,-164 -64,-231 -63,-105 -167,-184 -290,-211 -14,-3 -29,-6 -44,-8 -14,-2 -29,-3 -44,-3 -4,0 -8,0 -13,0 -4,0 -8,0 -13,0zm-33 759c-22,-3 -44,-9 -65,-17 -116,-44 -198,-157 -198,-288 0,-131 82,-244 198,-288 21,-8 42,-14 65,-17 15,-2 30,-3 46,-3 16,0 31,1 46,3 22,3 44,9 65,17 116,44 198,157 198,288 0,131 -82,244 -198,288 -21,8 -42,14 -65,17 -15,2 -30,3 -46,3 -15,0 -31,-1 -46,-3z">
        </path>
        <path class="fil1"
            d="M26545 9111c-15,0 -29,2 -44,3l0 0c-15,2 -29,4 -44,8l0 0c-123,28 -227,106 -290,211l0 0c-40,68 -64,147 -64,231l0 0c0,84 23,163 64,231l0 0c63,106 167,184 290,212l0 0c14,3 29,6 44,8l0 0c14,2 29,3 44,3l0 0c4,0 8,0 13,0l0 0c4,0 8,0 13,0l0 0c15,0 29,-2 44,-3l0 0c15,-2 29,-4 44,-8l0 0c123,-28 228,-106 290,-212l0 0c41,-68 64,-147 64,-231l0 0c0,-85 -23,-164 -64,-231l0 0c-63,-105 -167,-184 -290,-211l0 0c-14,-3 -29,-6 -44,-8l0 0c-14,-2 -29,-3 -44,-3l0 0c-4,0 -8,0 -13,0l0 0c-4,0 -8,0 -13,0zm-33 759c-22,-3 -44,-9 -65,-17l0 0c-116,-44 -198,-157 -198,-288l0 0c0,-131 82,-244 198,-288l0 0c21,-8 42,-14 65,-17l0 0c15,-2 30,-3 46,-3l0 0c16,0 31,1 46,3l0 0c22,3 44,9 65,17l0 0c116,44 198,157 198,288l0 0c0,131 -82,244 -198,288l0 0c-21,8 -42,14 -65,17l0 0c-15,2 -30,3 -46,3l0 0c-16,0 -31,-1 -46,-3l0 0z">
        </path>
        <path class="fil1"
            d="M25798 9593c0,168 196,288 292,288 96,0 133,-136 133,-304 0,-168 -37,-304 -133,-304 -96,0 -292,152 -292,320z">
        </path>
        <path class="fil1"
            d="M25798 9593c0,168 196,288 292,288l0 0c96,0 133,-136 133,-304l0 0c0,-168 -37,-304 -133,-304l0 0c-96,0 -292,152 -292,320l0 0z">
        </path>
        <path class="fil1"
            d="M26887 9565c0,168 37,304 133,304 96,0 292,-152 292,-320 0,-168 -196,-288 -292,-288 -96,0 -133,136 -133,304z">
        </path>
        <path class="fil1"
            d="M26887 9565c0,168 37,304 133,304l0 0c96,0 292,-152 292,-320l0 0c0,-168 -196,-288 -292,-288l0 0c-96,0 -133,136 -133,304l0 0z">
        </path>
        <path class="fil1"
            d="M26372 9565c0,102 83,185 185,185 102,0 185,-83 185,-185 0,-102 -83,-185 -185,-185 -102,0 -185,83 -185,185z">
        </path>
        <path class="fil1"
            d="M26372 9565c0,102 83,185 185,185l0 0c102,0 185,-83 185,-185l0 0c0,-102 -83,-185 -185,-185l0 0c-102,0 -185,83 -185,185l0 0z">
        </path>
        <path class="fil1"
            d="M7860 10467c50,-491 80,-1032 90,-1622l-645 17 8 -168c4,-90 7,-189 9,-296 287,2 621,3 1003,3l374 -2 364 0 197 -2 -9 149c-4,80 -7,146 -8,198 -2,52 -2,91 -2,118 -216,-11 -394,-17 -535,-17l-106 0c-15,179 -27,344 -35,495 -11,217 -20,428 -26,632 -6,204 -9,370 -9,496 -166,-2 -273,-3 -321,-3 -43,0 -160,1 -349,3z">
        </path>
        <path class="fil1"
            d="M9367 10467c19,-178 34,-338 46,-481 11,-143 21,-308 29,-496 8,-188 14,-386 18,-595 4,-209 6,-375 6,-498 126,3 228,5 306,5 81,0 179,-2 296,-7 116,-5 229,-7 340,-7 129,0 245,5 346,15 76,7 145,22 207,44 62,22 114,49 157,81 42,32 78,67 106,107 28,39 50,86 66,139 16,53 23,110 23,171 0,68 -9,131 -26,190 -17,59 -44,115 -81,167 -37,52 -83,97 -139,135 -56,38 -135,77 -236,116l79 193c22,54 46,108 71,164l203 444c9,19 25,57 49,114 -167,-2 -279,-3 -336,-3 -73,0 -192,1 -358,3 -16,-53 -46,-150 -88,-293 -17,-60 -32,-106 -44,-138 -24,-72 -60,-172 -108,-302l-156 -429c55,10 108,15 161,15 74,0 141,-11 201,-33 60,-22 106,-57 136,-103 31,-46 46,-96 46,-147 0,-43 -12,-82 -35,-114 -23,-33 -60,-57 -110,-74 -50,-16 -127,-24 -231,-24 -35,0 -72,1 -110,2 -38,2 -82,3 -133,4 -13,207 -24,460 -34,758 -10,298 -16,591 -19,878 -169,-2 -279,-3 -329,-3 -59,0 -164,1 -317,3z">
        </path>
        <path class="fil1"
            d="M12448 9437l471 0c-117,-356 -181,-552 -192,-589 -67,148 -123,270 -170,365l-109 224zm-1174 1030l126 -218 784 -1477 83 -165c24,-49 58,-118 102,-209 178,2 308,3 390,3 142,0 274,-1 396,-3l221 632 450 1216 88 221c-175,-2 -281,-3 -319,-3 -85,0 -210,1 -375,3 -44,-167 -108,-363 -192,-588l-763 0c-88,178 -179,374 -273,588 -188,-2 -304,-3 -346,-3 -77,0 -201,1 -372,3z">
        </path>
        <path class="fil1"
            d="M14075 10467l30 -318 59 -1080 17 -435 0 -237c157,2 296,3 416,3 86,0 207,-1 363,-3l647 1177 89 173c11,-170 23,-408 35,-714 12,-306 18,-518 18,-636 124,2 224,3 298,3 34,0 133,-1 297,-3l-36 452 -68 1255 -9 362c-132,-2 -254,-3 -369,-3 -95,0 -227,1 -394,3 -52,-99 -91,-171 -117,-215l-254 -432c-84,-142 -161,-277 -232,-407 -46,-82 -94,-172 -144,-270l-33 719 -16 605c-125,-2 -221,-3 -286,-3 -56,0 -160,1 -312,3z">
        </path>
        <path class="fil1"
            d="M16604 10435c-13,-215 -28,-388 -45,-517 113,51 214,86 303,105 89,20 166,30 233,30 88,0 158,-13 210,-39 52,-26 78,-64 78,-114 0,-17 -3,-34 -8,-49 -5,-16 -15,-33 -29,-53 -14,-20 -34,-41 -61,-64l-286 -249c-67,-57 -113,-98 -140,-123 -54,-52 -95,-100 -125,-144 -30,-44 -52,-90 -65,-136 -14,-46 -21,-95 -21,-146 0,-62 11,-122 33,-181 22,-59 54,-114 98,-166 43,-52 101,-96 173,-133 72,-37 149,-63 230,-77 82,-14 166,-20 253,-20 171,0 357,20 558,59 3,70 7,134 11,192 4,58 14,160 29,306 -93,-37 -178,-63 -255,-78 -77,-15 -143,-22 -199,-22 -79,0 -144,15 -196,44 -52,29 -78,66 -78,109 0,20 4,40 12,59 8,19 23,42 46,67 22,26 52,54 88,85 36,31 93,77 171,137l109 86c32,26 67,58 105,96 37,37 70,74 97,111 27,36 48,70 63,100 15,30 26,61 33,92 7,31 11,64 11,99 0,91 -22,178 -65,260 -44,82 -105,150 -185,203 -80,53 -168,90 -263,111 -96,21 -196,32 -302,32 -164,0 -370,-24 -620,-71z">
        </path>
        <path class="fil1"
            d="M18890 10467l-56 -185 -370 -1066 -291 -819c137,2 260,3 367,3 66,0 169,-1 309,-3 23,90 41,158 55,205 18,61 53,171 103,329l223 718c22,75 50,172 82,293l70 -174 529 -1159c9,-21 19,-46 31,-73 12,-27 30,-73 55,-138 147,2 264,3 353,3 56,0 166,-1 331,-3 -103,192 -220,416 -350,673l-523 1037c-51,101 -107,221 -170,359 -170,-2 -291,-3 -364,-3 -68,0 -196,1 -384,3z">
        </path>
        <path class="fil1"
            d="M20684 10467c58,-812 87,-1436 87,-1874l-2 -196c177,2 295,3 355,3 27,0 136,-1 326,-3 -18,227 -33,443 -44,646 -14,283 -24,548 -30,794 -6,246 -9,456 -9,630l-311 -3c-61,0 -185,1 -373,3z">
        </path>
        <path class="fil1"
            d="M21721 10435c-13,-215 -28,-388 -45,-517 113,51 214,86 303,105 89,20 166,30 233,30 88,0 158,-13 210,-39 52,-26 78,-64 78,-114 0,-17 -3,-34 -8,-49 -5,-16 -15,-33 -29,-53 -14,-20 -34,-41 -61,-64l-286 -249c-67,-57 -113,-98 -140,-123 -54,-52 -95,-100 -125,-144 -30,-44 -52,-90 -65,-136 -14,-46 -21,-95 -21,-146 0,-62 11,-122 33,-181 22,-59 54,-114 98,-166 43,-52 101,-96 173,-133 72,-37 149,-63 230,-77 82,-14 166,-20 253,-20 171,0 357,20 558,59 3,70 7,134 11,192 4,58 14,160 29,306 -93,-37 -178,-63 -255,-78 -77,-15 -143,-22 -199,-22 -79,0 -144,15 -196,44 -52,29 -78,66 -78,109 0,20 4,40 12,59 8,19 23,42 46,67 22,26 52,54 88,85 36,31 93,77 171,137l109 86c32,26 67,58 105,96 37,37 70,74 97,111 27,36 48,70 63,100 15,30 26,61 33,92 7,31 11,64 11,99 0,91 -22,178 -65,260 -44,82 -105,150 -185,203 -80,53 -168,90 -263,111 -96,21 -196,32 -302,32 -164,0 -370,-24 -620,-71z">
        </path>
        <path class="fil1"
            d="M23462 10467c58,-812 87,-1436 87,-1874l-2 -196c177,2 295,3 355,3 27,0 136,-1 326,-3 -18,227 -33,443 -44,646 -14,283 -24,548 -30,794 -6,246 -9,456 -9,630l-311 -3c-61,0 -185,1 -373,3z">
        </path>
        <path class="fil1"
            d="M28845 10467l30 -318 59 -1080 17 -435 0 -237c157,2 296,3 416,3 86,0 207,-1 363,-3l647 1177 89 173c11,-170 23,-408 35,-714 12,-306 18,-518 18,-636 124,2 224,3 298,3 34,0 133,-1 297,-3l-36 452 -68 1255 -9 362c-132,-2 -254,-3 -369,-3 -95,0 -227,1 -394,3 -52,-99 -91,-171 -117,-215l-254 -432c-84,-142 -161,-277 -232,-407 -46,-82 -94,-172 -144,-270l-33 719 -16 605c-125,-2 -221,-3 -286,-3 -56,0 -160,1 -312,3z">
        </path>
        <path class="fil1"
            d="M15012 12551c-4,-70 -9,-127 -15,-171 90,41 172,61 246,61 29,0 57,-4 82,-13 26,-9 44,-22 57,-38 12,-16 18,-35 18,-55 0,-16 -3,-30 -9,-42 -9,-17 -23,-35 -44,-53 -26,-25 -73,-67 -141,-125 -32,-28 -54,-48 -67,-60 -28,-26 -49,-50 -64,-71 -15,-21 -25,-42 -32,-62 -6,-21 -10,-43 -10,-66 0,-43 12,-84 36,-122 24,-38 60,-68 108,-89 48,-21 109,-32 182,-32 66,0 140,8 222,24 2,48 7,103 14,164 -72,-28 -138,-41 -198,-41 -45,0 -82,10 -111,31 -29,20 -43,44 -43,71 0,7 1,15 3,23 2,8 5,16 9,23 4,8 11,17 21,30 10,12 25,26 45,43 20,16 37,30 51,40l85 77c22,18 41,35 58,52 17,17 32,33 44,49 12,16 22,31 29,45 7,14 12,29 16,44 3,15 5,31 5,47 0,39 -9,75 -27,109 -18,34 -44,62 -77,85 -34,22 -70,37 -110,46 -40,9 -82,13 -127,13 -29,0 -64,-3 -103,-8 -39,-5 -91,-15 -155,-29z">
        </path>
        <path class="fil1"
            d="M16356 11759c-70,0 -130,16 -182,48 -52,32 -90,76 -116,131 -26,55 -39,115 -39,180 0,60 13,115 38,165 25,50 64,89 116,115 52,26 108,40 168,40 46,0 89,-8 130,-23 41,-16 77,-39 107,-71 30,-32 53,-71 68,-116 15,-45 23,-92 23,-141 0,-46 -7,-89 -20,-131 -14,-42 -35,-78 -63,-108 -29,-30 -63,-52 -103,-67 -40,-14 -82,-22 -127,-22zm11 -147c69,0 134,9 197,28 63,19 119,50 168,92 49,43 86,92 110,149 25,57 37,123 37,198 0,71 -12,139 -35,203 -23,65 -60,120 -109,167 -49,47 -109,81 -180,104 -71,23 -145,34 -223,34 -74,0 -144,-10 -212,-31 -68,-21 -126,-53 -175,-97 -49,-44 -84,-95 -105,-152 -21,-57 -32,-119 -32,-186 0,-73 13,-143 40,-210 26,-67 65,-122 117,-166 51,-44 111,-77 180,-99 69,-23 143,-34 222,-34z">
        </path>
        <path class="fil1"
            d="M17077 12571c14,-139 25,-293 33,-463 8,-170 13,-330 14,-479 47,1 86,1 117,1 21,0 55,0 102,-1 -6,83 -12,177 -17,283l-14 277c-4,79 -7,158 -9,236l119 1c111,0 185,0 220,-1 35,-1 70,-2 104,-4 -4,45 -8,95 -11,150 -121,-1 -225,-1 -311,-1l-217 1 -130 1z">
        </path>
        <path class="fil1"
            d="M17950 11629c53,1 89,1 108,1 23,0 58,0 105,-1l-33 557c0,6 -1,13 -1,21 0,62 9,109 27,140 18,31 44,54 78,68 34,14 74,21 118,21 28,0 55,-3 80,-10 21,-6 40,-13 57,-23 14,-8 26,-18 37,-29 12,-13 23,-29 31,-46 9,-17 15,-36 19,-58 6,-33 12,-90 17,-171l15 -240c3,-70 6,-147 8,-231 52,1 90,1 116,1l101 -1 -21 333 -14 264c-4,62 -11,108 -19,138 -7,25 -18,49 -31,70 -13,19 -28,37 -46,52 -23,20 -50,37 -81,51 -35,16 -71,28 -110,35 -53,10 -108,15 -165,15 -58,0 -112,-5 -163,-16 -43,-9 -83,-23 -119,-43 -36,-19 -65,-41 -86,-65 -17,-19 -31,-43 -41,-72 -11,-32 -17,-68 -17,-108 0,-14 1,-32 1,-53 1,-22 3,-50 5,-85l6 -97c2,-30 5,-75 8,-134l7 -150c2,-41 3,-86 5,-136z">
        </path>
        <path class="fil1"
            d="M19244 12571l15 -202 15 -300 10 -295 -48 0 -45 1 -43 1 -159 5c4,-66 6,-117 6,-151 132,1 271,1 416,1l248 -1 132 -1c-5,65 -7,116 -7,151 -83,-4 -163,-6 -239,-6l-53 0 -8 126 -20 485 -1 81c0,34 -1,68 -1,105l-105 -1c-12,0 -49,0 -113,1z">
        </path>
        <path class="fil1"
            d="M19930 12571c11,-158 20,-321 27,-487 7,-166 10,-293 10,-381l-1 -74 115 1c6,0 42,0 106,-1 -19,242 -31,556 -36,942l-102 -1c-17,0 -57,0 -120,1z">
        </path>
        <path class="fil1"
            d="M20939 11759c-70,0 -130,16 -182,48 -52,32 -90,76 -116,131 -26,55 -39,115 -39,180 0,60 13,115 38,165 25,50 64,89 116,115 52,26 108,40 168,40 46,0 89,-8 130,-23 41,-16 77,-39 107,-71 30,-32 53,-71 68,-116 15,-45 23,-92 23,-141 0,-46 -7,-89 -20,-131 -14,-42 -35,-78 -63,-108 -29,-30 -63,-52 -103,-67 -40,-14 -82,-22 -127,-22zm11 -147c69,0 134,9 197,28 63,19 119,50 168,92 49,43 86,92 110,149 25,57 37,123 37,198 0,71 -12,139 -35,203 -23,65 -60,120 -109,167 -49,47 -109,81 -180,104 -71,23 -145,34 -223,34 -74,0 -144,-10 -212,-31 -68,-21 -126,-53 -175,-97 -49,-44 -84,-95 -105,-152 -21,-57 -32,-119 -32,-186 0,-73 13,-143 40,-210 26,-67 65,-122 117,-166 51,-44 111,-77 180,-99 69,-23 143,-34 222,-34z">
        </path>
        <path class="fil1"
            d="M21665 12571c9,-82 15,-175 20,-277l16 -338c6,-122 8,-231 8,-326 53,1 99,1 136,1 28,0 68,0 121,-1 52,91 124,209 216,355 92,146 166,267 222,362l25 -640c0,-15 1,-41 1,-77 43,1 76,1 98,1 9,0 41,0 97,-1l-17 253 -21 433 -8 255c-48,-1 -89,-1 -122,-1 -27,0 -70,0 -130,1 -23,-41 -41,-71 -52,-91 -19,-30 -59,-93 -121,-188 -41,-63 -91,-143 -152,-240 -45,-72 -83,-134 -115,-188 -4,75 -9,213 -17,415 -3,82 -6,180 -8,292 -43,-1 -75,-1 -94,-1 -15,0 -49,0 -102,1z">
        </path>
        <path class="fil1"
            d="M22823 12551c-4,-70 -9,-127 -15,-171 90,41 172,61 246,61 29,0 57,-4 82,-13 26,-9 44,-22 57,-38 12,-16 18,-35 18,-55 0,-16 -3,-30 -9,-42 -9,-17 -23,-35 -44,-53 -26,-25 -73,-67 -141,-125 -32,-28 -54,-48 -67,-60 -28,-26 -49,-50 -64,-71 -15,-21 -25,-42 -32,-62 -6,-21 -10,-43 -10,-66 0,-43 12,-84 36,-122 24,-38 60,-68 108,-89 48,-21 109,-32 182,-32 66,0 140,8 222,24 2,48 7,103 14,164 -72,-28 -138,-41 -198,-41 -45,0 -82,10 -111,31 -29,20 -43,44 -43,71 0,7 1,15 3,23 2,8 5,16 9,23 4,8 11,17 21,30 10,12 25,26 45,43 20,16 37,30 51,40l85 77c22,18 41,35 58,52 17,17 32,33 44,49 12,16 22,31 29,45 7,14 12,29 16,44 3,15 5,31 5,47 0,39 -9,75 -27,109 -18,34 -44,62 -77,85 -34,22 -70,37 -110,46 -40,9 -82,13 -127,13 -29,0 -64,-3 -103,-8 -39,-5 -91,-15 -155,-29z">
        </path>
    </g>
</svg>